<svg width="36" height="36" viewBox="0 0 36 36" fill="none" xmlns="http://www.w3.org/2000/svg">
<path d="M18 18C15.525 18 13.4063 17.1187 11.6438 15.3562C9.88125 13.5937 9 11.475 9 9C9 6.525 9.88125 4.40625 11.6438 2.64375C13.4063 0.88125 15.525 0 18 0C20.475 0 22.5938 0.88125 24.3562 2.64375C26.1187 4.40625 27 6.525 27 9C27 11.475 26.1187 13.5937 24.3562 15.3562C22.5938 17.1187 20.475 18 18 18ZM0 36V29.7C0 28.425 0.3285 27.2535 0.9855 26.1855C1.6425 25.1175 2.514 24.3015 3.6 23.7375C5.925 22.575 8.2875 21.7035 10.6875 21.123C13.0875 20.5425 15.525 20.2515 18 20.25C20.475 20.2485 22.9125 20.5395 25.3125 21.123C27.7125 21.7065 30.075 22.578 32.4 23.7375C33.4875 24.3 34.3597 25.116 35.0168 26.1855C35.6737 27.255 36.0015 28.4265 36 29.7V36H0ZM4.5 31.5H31.5V29.7C31.5 29.2875 31.3973 28.9125 31.1918 28.575C30.9863 28.2375 30.714 27.975 30.375 27.7875C28.35 26.775 26.3062 26.016 24.2437 25.5105C22.1812 25.005 20.1 24.7515 18 24.75C15.9 24.7485 13.8188 25.002 11.7563 25.5105C9.69375 26.019 7.65 26.778 5.625 27.7875C5.2875 27.975 5.01525 28.2375 4.80825 28.575C4.60125 28.9125 4.4985 29.2875 4.5 29.7V31.5ZM18 13.5C19.2375 13.5 20.2973 13.0598 21.1793 12.1793C22.0613 11.2987 22.5015 10.239 22.5 9C22.4985 7.761 22.0583 6.702 21.1793 5.823C20.3003 4.944 19.2405 4.503 18 4.5C16.7595 4.497 15.7005 4.938 14.823 5.823C13.9455 6.708 13.5045 7.767 13.5 9C13.4955 10.233 13.9365 11.2928 14.823 12.1793C15.7095 13.0658 16.7685 13.506 18 13.5Z" fill="black"/>
</svg>
