<svg width="45" height="45" viewBox="0 0 45 45" fill="none" xmlns="http://www.w3.org/2000/svg">
<path d="M34.875 5.625H10.125C9.53405 5.625 8.94889 5.7414 8.40292 5.96754C7.85696 6.19369 7.36088 6.52516 6.94302 6.94302C6.52516 7.36088 6.19369 7.85696 5.96754 8.40292C5.7414 8.94889 5.625 9.53405 5.625 10.125V34.875C5.625 36.0685 6.09911 37.2131 6.94302 38.057C7.78693 38.9009 8.93153 39.375 10.125 39.375H34.875C36.0685 39.375 37.2131 38.9009 38.057 38.057C38.9009 37.2131 39.375 36.0685 39.375 34.875V10.125C39.375 8.93153 38.9009 7.78693 38.057 6.94302C37.2131 6.09911 36.0685 5.625 34.875 5.625Z" fill="black" fill-opacity="0.16" stroke="black" stroke-width="1.5" stroke-miterlimit="10"/>
<path d="M18.75 39.375V5.625M5.625 18.75H39.375M10.125 5.625H34.875C36.0685 5.625 37.2131 6.09911 38.057 6.94302C38.9009 7.78693 39.375 8.93153 39.375 10.125V34.875C39.375 36.0685 38.9009 37.2131 38.057 38.057C37.2131 38.9009 36.0685 39.375 34.875 39.375H10.125C8.93153 39.375 7.78693 38.9009 6.94302 38.057C6.09911 37.2131 5.625 36.0685 5.625 34.875V10.125C5.625 9.53405 5.7414 8.94889 5.96754 8.40292C6.19369 7.85696 6.52516 7.36088 6.94302 6.94302C7.78693 6.09911 8.93153 5.625 10.125 5.625Z" stroke="black" stroke-width="3" stroke-miterlimit="10" stroke-linecap="round" stroke-linejoin="round"/>
</svg>
