<svg width="41" height="41" viewBox="0 0 41 41" fill="none" xmlns="http://www.w3.org/2000/svg">
<path d="M34.0813 35.875C30.5222 35.875 27.0059 35.0994 23.5323 33.5483C20.0587 31.9971 16.8983 29.7973 14.051 26.949C11.2038 24.1006 9.00462 20.9402 7.45346 17.4677C5.90229 13.9953 5.12614 10.4789 5.125 6.91876C5.125 6.40626 5.29583 5.97918 5.6375 5.63751C5.97917 5.29585 6.40625 5.12501 6.91875 5.12501H13.8375C14.2361 5.12501 14.592 5.26054 14.9052 5.5316C15.2184 5.80265 15.4035 6.12268 15.4604 6.49168L16.5708 12.4708C16.6278 12.9264 16.6135 13.3108 16.5281 13.624C16.4427 13.9372 16.2861 14.2077 16.0583 14.4354L11.9156 18.6208C12.4851 19.6743 13.161 20.6919 13.9434 21.6736C14.7258 22.6554 15.5874 23.6023 16.5281 24.5146C17.4108 25.3972 18.3361 26.2161 19.3042 26.9712C20.2722 27.7263 21.2972 28.4164 22.3792 29.0417L26.3937 25.0271C26.65 24.7708 26.9848 24.5789 27.3983 24.4514C27.8117 24.3238 28.2171 24.288 28.6146 24.3438L34.5083 25.5396C34.9069 25.6535 35.2344 25.8602 35.4906 26.1597C35.7469 26.4592 35.875 26.7935 35.875 27.1625V34.0813C35.875 34.5938 35.7042 35.0208 35.3625 35.3625C35.0208 35.7042 34.5938 35.875 34.0813 35.875ZM22.2083 18.7917V8.54168H25.625V12.9833L34.1667 4.44168L36.5583 6.83335L28.0167 15.375H32.4583V18.7917H22.2083Z" fill="black"/>
</svg>
