<svg width="16" height="16" viewBox="0 0 16 16" fill="none" xmlns="http://www.w3.org/2000/svg">
<path d="M1 15H2.098L12.796 4.302L11.698 3.204L1 13.902V15ZM0 16V13.48L13.18 0.288C13.2833 0.196667 13.3967 0.126 13.52 0.0760001C13.6433 0.0260001 13.7723 0.000666559 13.907 -1.07363e-07C14.0417 -0.000666774 14.1717 0.0206667 14.297 0.064C14.4237 0.106 14.5403 0.182 14.647 0.292L15.714 1.366C15.824 1.472 15.8993 1.58867 15.94 1.716C15.98 1.84267 16 1.96933 16 2.096C16 2.232 15.9773 2.362 15.932 2.486C15.886 2.60933 15.8133 2.72233 15.714 2.825L2.519 16H0ZM12.238 3.762L11.698 3.204L12.796 4.302L12.238 3.762Z" fill="black"/>
</svg>
