<svg width="44" height="44" viewBox="0 0 44 44" fill="none" xmlns="http://www.w3.org/2000/svg">
<path d="M29.3333 25.6667H14.6667C14.1804 25.6667 13.7141 25.8598 13.3703 26.2037C13.0265 26.5475 12.8333 27.0138 12.8333 27.5C12.8333 27.9863 13.0265 28.4526 13.3703 28.7964C13.7141 29.1402 14.1804 29.3334 14.6667 29.3334H29.3333C29.8196 29.3334 30.2859 29.1402 30.6297 28.7964C30.9735 28.4526 31.1667 27.9863 31.1667 27.5C31.1667 27.0138 30.9735 26.5475 30.6297 26.2037C30.2859 25.8598 29.8196 25.6667 29.3333 25.6667ZM29.3333 18.3334H18.3333C17.8471 18.3334 17.3808 18.5265 17.037 18.8703C16.6932 19.2141 16.5 19.6805 16.5 20.1667C16.5 20.6529 16.6932 21.1192 17.037 21.463C17.3808 21.8069 17.8471 22 18.3333 22H29.3333C29.8196 22 30.2859 21.8069 30.6297 21.463C30.9735 21.1192 31.1667 20.6529 31.1667 20.1667C31.1667 19.6805 30.9735 19.2141 30.6297 18.8703C30.2859 18.5265 29.8196 18.3334 29.3333 18.3334ZM36.6667 7.33335H31.1667V5.50002C31.1667 5.01379 30.9735 4.54747 30.6297 4.20366C30.2859 3.85984 29.8196 3.66669 29.3333 3.66669C28.8471 3.66669 28.3808 3.85984 28.037 4.20366C27.6932 4.54747 27.5 5.01379 27.5 5.50002V7.33335H23.8333V5.50002C23.8333 5.01379 23.6402 4.54747 23.2964 4.20366C22.9525 3.85984 22.4862 3.66669 22 3.66669C21.5138 3.66669 21.0475 3.85984 20.7036 4.20366C20.3598 4.54747 20.1667 5.01379 20.1667 5.50002V7.33335H16.5V5.50002C16.5 5.01379 16.3068 4.54747 15.963 4.20366C15.6192 3.85984 15.1529 3.66669 14.6667 3.66669C14.1804 3.66669 13.7141 3.85984 13.3703 4.20366C13.0265 4.54747 12.8333 5.01379 12.8333 5.50002V7.33335H7.33333C6.8471 7.33335 6.38079 7.52651 6.03697 7.87033C5.69315 8.21414 5.5 8.68046 5.5 9.16669V34.8334C5.5 36.292 6.07946 37.691 7.11091 38.7224C8.14236 39.7539 9.54131 40.3334 11 40.3334H33C34.4587 40.3334 35.8576 39.7539 36.8891 38.7224C37.9205 37.691 38.5 36.292 38.5 34.8334V9.16669C38.5 8.68046 38.3068 8.21414 37.963 7.87033C37.6192 7.52651 37.1529 7.33335 36.6667 7.33335ZM34.8333 34.8334C34.8333 35.3196 34.6402 35.7859 34.2964 36.1297C33.9525 36.4735 33.4862 36.6667 33 36.6667H11C10.5138 36.6667 10.0475 36.4735 9.70364 36.1297C9.35982 35.7859 9.16667 35.3196 9.16667 34.8334V11H12.8333V12.8334C12.8333 13.3196 13.0265 13.7859 13.3703 14.1297C13.7141 14.4735 14.1804 14.6667 14.6667 14.6667C15.1529 14.6667 15.6192 14.4735 15.963 14.1297C16.3068 13.7859 16.5 13.3196 16.5 12.8334V11H20.1667V12.8334C20.1667 13.3196 20.3598 13.7859 20.7036 14.1297C21.0475 14.4735 21.5138 14.6667 22 14.6667C22.4862 14.6667 22.9525 14.4735 23.2964 14.1297C23.6402 13.7859 23.8333 13.3196 23.8333 12.8334V11H27.5V12.8334C27.5 13.3196 27.6932 13.7859 28.037 14.1297C28.3808 14.4735 28.8471 14.6667 29.3333 14.6667C29.8196 14.6667 30.2859 14.4735 30.6297 14.1297C30.9735 13.7859 31.1667 13.3196 31.1667 12.8334V11H34.8333V34.8334Z" fill="black"/>
</svg>
