<svg width="37" height="37" viewBox="0 0 37 37" fill="none" xmlns="http://www.w3.org/2000/svg">
<path d="M34.6875 6.9375V4.625H31.2188V2.3125H28.9062V4.625H27.75C26.4747 4.625 25.4375 5.66331 25.4375 6.9375V9.25C25.4375 10.5253 26.4747 11.5625 27.75 11.5625H32.375V13.875H25.4375V16.1875H28.9062V18.5H31.2188V16.1875H32.375C33.6503 16.1875 34.6875 15.1503 34.6875 13.875V11.5625C34.6875 10.2883 33.6503 9.25 32.375 9.25H27.75V6.9375H34.6875ZM27.75 23.125V25.4375H30.7401L26.5938 29.5838L23.9436 26.9325C23.7271 26.716 23.4335 26.5941 23.1273 26.5938H23.125C22.8188 26.5941 22.5252 26.716 22.3087 26.9325L16.1875 33.0526L17.8224 34.6875L23.1262 29.3849L25.7763 32.0362C25.9931 32.253 26.2872 32.3748 26.5938 32.3748C26.9003 32.3748 27.1944 32.253 27.4112 32.0362L32.375 27.0724V30.0625H34.6875V23.125H27.75ZM4.625 34.6875H2.3125V28.9062C2.3125 24.4431 5.94313 20.8125 10.4062 20.8125H17.3438C19.6435 20.8125 21.8416 21.7953 23.3759 23.51L21.6531 25.0525C21.1108 24.4461 20.4467 23.961 19.7041 23.6288C18.9615 23.2967 18.1572 23.125 17.3438 23.125H10.4062C7.21847 23.125 4.625 25.7185 4.625 28.9062V34.6875ZM13.875 18.5C16.0216 18.5 18.0803 17.6473 19.5981 16.1294C21.116 14.6115 21.9688 12.5528 21.9688 10.4062C21.9688 8.25965 21.116 6.20098 19.5981 4.6831C18.0803 3.16523 16.0216 2.3125 13.875 2.3125C11.7284 2.3125 9.66973 3.16523 8.15185 4.6831C6.63398 6.20098 5.78125 8.25965 5.78125 10.4062C5.78125 12.5528 6.63398 14.6115 8.15185 16.1294C9.66973 17.6473 11.7284 18.5 13.875 18.5ZM13.875 4.625C15.4083 4.625 16.8788 5.23409 17.963 6.31829C19.0472 7.40248 19.6562 8.87297 19.6562 10.4062C19.6562 11.9395 19.0472 13.41 17.963 14.4942C16.8788 15.5784 15.4083 16.1875 13.875 16.1875C12.3417 16.1875 10.8712 15.5784 9.78704 14.4942C8.70284 13.41 8.09375 11.9395 8.09375 10.4062C8.09375 8.87297 8.70284 7.40248 9.78704 6.31829C10.8712 5.23409 12.3417 4.625 13.875 4.625Z" fill="black"/>
</svg>
