<svg width="13" height="13" viewBox="0 0 13 13" fill="none" xmlns="http://www.w3.org/2000/svg">
<path d="M11.375 11.375L9.02254 9.02255M9.02254 9.02255C9.42494 8.62015 9.74414 8.14243 9.96192 7.61668C10.1797 7.09092 10.2918 6.52741 10.2918 5.95834C10.2918 5.38926 10.1797 4.82576 9.96192 4.3C9.74414 3.77424 9.42494 3.29653 9.02254 2.89413C8.62015 2.49173 8.14243 2.17253 7.61667 1.95476C7.09091 1.73698 6.52741 1.62489 5.95833 1.62489C5.38926 1.62489 4.82575 1.73698 4.3 1.95476C3.77424 2.17253 3.29652 2.49173 2.89413 2.89413C2.08145 3.70681 1.62489 4.80904 1.62489 5.95834C1.62489 7.10764 2.08145 8.20987 2.89413 9.02255C3.7068 9.83523 4.80903 10.2918 5.95833 10.2918C7.10764 10.2918 8.20986 9.83523 9.02254 9.02255Z" stroke="#AFAFAF" stroke-linecap="round" stroke-linejoin="round"/>
</svg>
